<mxfile host="app.diagrams.net" agent="Mozilla/5.0 (Macintosh; Intel Mac OS X 10_15_7) AppleWebKit/537.36 (KHTML, like Gecko) Chrome/134.0.0.0 Safari/537.36" version="26.2.14">
  <diagram name="PÃ¡gina-1" id="IizV0ZKITarImfJM_A5O">
    <mxGraphModel dx="982" dy="695" grid="1" gridSize="10" guides="1" tooltips="1" connect="1" arrows="1" fold="1" page="1" pageScale="1" pageWidth="827" pageHeight="1169" math="0" shadow="0">
      <root>
        <mxCell id="0" />
        <mxCell id="1" parent="0" />
        <mxCell id="AASYkf402rb6I2aHNUHm-3" value="ACTIVO" style="whiteSpace=wrap;html=1;align=center;fillColor=#dae8fc;strokeColor=#6c8ebf;" parent="1" vertex="1">
          <mxGeometry x="520" y="40" width="100" height="40" as="geometry" />
        </mxCell>
        <mxCell id="AASYkf402rb6I2aHNUHm-46" value="Tiene" style="shape=rhombus;perimeter=rhombusPerimeter;whiteSpace=wrap;html=1;align=center;fillColor=#ffe6cc;strokeColor=#d79b00;" parent="1" vertex="1">
          <mxGeometry x="700" y="170" width="100" height="50" as="geometry" />
        </mxCell>
        <mxCell id="AASYkf402rb6I2aHNUHm-51" value="&lt;b&gt;1 : 1&lt;/b&gt;" style="text;strokeColor=none;fillColor=none;spacingLeft=4;spacingRight=4;overflow=hidden;rotatable=0;points=[[0,0.5],[1,0.5]];portConstraint=eastwest;fontSize=12;whiteSpace=wrap;html=1;" parent="1" vertex="1">
          <mxGeometry x="730" y="20" width="40" height="30" as="geometry" />
        </mxCell>
        <mxCell id="AASYkf402rb6I2aHNUHm-61" value="Valor" style="ellipse;whiteSpace=wrap;html=1;align=center;fillColor=#d5e8d4;strokeColor=#82b366;" parent="1" vertex="1">
          <mxGeometry x="690" y="90" width="100" height="40" as="geometry" />
        </mxCell>
        <mxCell id="A7rjeZ72b8iRB3e_D9d8-1" value="ACTIVO" style="whiteSpace=wrap;html=1;align=center;fillColor=#dae8fc;strokeColor=#6c8ebf;" vertex="1" parent="1">
          <mxGeometry x="520" y="90" width="100" height="40" as="geometry" />
        </mxCell>
        <mxCell id="A7rjeZ72b8iRB3e_D9d8-2" value="ACTIVO" style="whiteSpace=wrap;html=1;align=center;fillColor=#dae8fc;strokeColor=#6c8ebf;" vertex="1" parent="1">
          <mxGeometry x="520" y="140" width="100" height="40" as="geometry" />
        </mxCell>
      </root>
    </mxGraphModel>
  </diagram>
</mxfile>
